<svg width="17" height="16" viewBox="0 0 17 16" fill="none" xmlns="http://www.w3.org/2000/svg">
    <path d="M8.49984 2.66669C8.86803 2.66669 9.1665 2.96516 9.1665 3.33336V7.33336L13.1665 7.33335C13.5347 7.33335 13.8332 7.63183 13.8332 8.00002C13.8332 8.36821 13.5347 8.66669 13.1665 8.66669L9.1665 8.66669L9.16651 12.6667C9.16651 13.0349 8.86803 13.3334 8.49984 13.3334C8.13165 13.3334 7.83317 13.0349 7.83317 12.6667L7.8325 8.66669L3.83317 8.66669C3.46498 8.66669 3.1665 8.36821 3.1665 8.00002C3.1665 7.63183 3.46498 7.33335 3.83317 7.33335L7.8325 7.33336L7.83317 3.33336C7.83317 2.96516 8.13164 2.66669 8.49984 2.66669Z" fill="white"/>
</svg>
