<svg width="24" height="24" viewBox="0 0 24 24" fill="none" xmlns="http://www.w3.org/2000/svg">
    <path fill-rule="evenodd" clip-rule="evenodd" d="M3.89998 12.0001C3.89998 7.52659 7.52647 3.9001 12 3.9001C16.4735 3.9001 20.1 7.52659 20.1 12.0001C20.1 16.4736 16.4735 20.1001 12 20.1001C7.52647 20.1001 3.89998 16.4736 3.89998 12.0001ZM12 2.1001C6.53236 2.1001 2.09998 6.53248 2.09998 12.0001C2.09998 17.4677 6.53236 21.9001 12 21.9001C17.4676 21.9001 21.9 17.4677 21.9 12.0001C21.9 6.53248 17.4676 2.1001 12 2.1001Z" fill="#3F8CD6"/>
    <path d="M15.4636 9.2636C15.8151 8.91213 16.3849 8.91213 16.7364 9.2636C17.0879 9.61508 17.0879 10.1849 16.7364 10.5364L12.1364 15.1364C11.7849 15.4879 11.2151 15.4879 10.8636 15.1364L8.2636 12.5364C7.91213 12.1849 7.91213 11.6151 8.2636 11.2636C8.61508 10.9121 9.18492 10.9121 9.5364 11.2636L11.5 13.2272L15.4636 9.2636Z" fill="#3F8CD6"/>
</svg>
