<svg width="16" height="16" viewBox="0 0 16 16" fill="none" xmlns="http://www.w3.org/2000/svg">
    <path fill-rule="evenodd" clip-rule="evenodd" d="M9.704 5.40117C10.0347 5.42184 10.2861 5.70671 10.2654 6.03743L9.93207 11.3708C9.9114 11.7015 9.62653 11.9528 9.29581 11.9322C8.96508 11.9115 8.71373 11.6266 8.7344 11.2959L9.06774 5.96258C9.08841 5.63185 9.37327 5.3805 9.704 5.40117Z" fill="#858DA6"/>
    <path fill-rule="evenodd" clip-rule="evenodd" d="M6.29581 5.40117C5.96508 5.42184 5.71373 5.70671 5.7344 6.03743L6.06774 11.3708C6.08841 11.7015 6.37327 11.9528 6.704 11.9322C7.03472 11.9115 7.28607 11.6266 7.2654 11.2959L6.93207 5.96258C6.9114 5.63185 6.62653 5.3805 6.29581 5.40117Z" fill="#858DA6"/>
    <path fill-rule="evenodd" clip-rule="evenodd" d="M1.9999 2.73334C1.66853 2.73334 1.3999 3.00197 1.3999 3.33334C1.3999 3.66471 1.66853 3.93334 1.9999 3.93334H2.78685L3.5566 12.144C3.58683 12.4665 3.6127 12.7425 3.65196 12.9689C3.69337 13.2077 3.75658 13.4378 3.88588 13.6551C4.08202 13.9848 4.37179 14.2487 4.71835 14.4132C4.94681 14.5217 5.18177 14.5631 5.42343 14.5821C5.65248 14.6 5.9297 14.6 6.25368 14.6H9.74613C10.0701 14.6 10.3473 14.6 10.5764 14.5821C10.818 14.5631 11.053 14.5217 11.2815 14.4132C11.628 14.2487 11.9178 13.9848 12.1139 13.6551C12.2432 13.4378 12.3064 13.2077 12.3478 12.9689C12.3871 12.7425 12.413 12.4665 12.4432 12.144L13.2129 3.93334H13.9999C14.3313 3.93334 14.5999 3.66471 14.5999 3.33334C14.5999 3.00197 14.3313 2.73334 13.9999 2.73334H10.5303C10.2595 1.58666 9.22934 0.733337 7.9999 0.733337C6.77047 0.733337 5.74034 1.58666 5.46948 2.73334H1.9999ZM4.74928 12.0098C4.78218 12.3606 4.80405 12.5894 4.83431 12.7639C4.8633 12.931 4.89289 13.0008 4.91718 13.0416C4.99157 13.1667 5.10149 13.2668 5.23294 13.3292C5.27586 13.3495 5.34806 13.3725 5.51721 13.3857C5.69375 13.3996 5.92354 13.4 6.27592 13.4H9.72388C10.0763 13.4 10.3061 13.3996 10.4826 13.3857C10.6517 13.3725 10.7239 13.3495 10.7669 13.3292C10.8983 13.2668 11.0082 13.1667 11.0826 13.0416C11.1069 13.0008 11.1365 12.931 11.1655 12.7639C11.1958 12.5894 11.2176 12.3606 11.2505 12.0098L12.0077 3.93334H3.99212L4.74928 12.0098ZM7.9999 1.93334C7.44142 1.93334 6.95932 2.26035 6.73463 2.73334H9.26518C9.04048 2.26035 8.55838 1.93334 7.9999 1.93334Z" fill="#858DA6"/>
</svg>
