<svg width="26" height="26" viewBox="0 0 26 26" fill="none" xmlns="http://www.w3.org/2000/svg">
    <path d="M20.8763 20.3793L20.2081 20.0388L20.8763 20.3793ZM19.3468 21.9088L19.6873 22.5771L19.3468 21.9088ZM20.5549 8.68415L20.0245 9.21448L20.5549 8.68415ZM21.0368 9.22466L20.3973 9.61654L21.0368 9.22466ZM21.2164 9.65824L20.4871 9.83333L21.2164 9.65824ZM15.3092 3.75112L15.1341 4.48039L15.3092 3.75112ZM16.2833 4.41261L15.753 4.94294L16.2833 4.41261ZM15.7428 3.93071L15.3509 4.57019L15.7428 3.93071ZM7.68496 21.9088L7.34447 22.5771L7.68496 21.9088ZM6.52393 16.6903V9.30968H5.02393V16.6903H6.52393ZM11.3739 4.45967H14.5863V2.95967H11.3739V4.45967ZM15.753 4.94294L20.0245 9.21448L21.0852 8.15382L16.8137 3.88228L15.753 4.94294ZM20.5078 10.3812V16.6903H22.0078V10.3812H20.5078ZM15.6578 21.5403H11.3739V23.0403H15.6578V21.5403ZM20.5078 16.6903C20.5078 17.6828 20.5072 18.382 20.4626 18.928C20.4187 19.4653 20.336 19.7878 20.2081 20.0388L21.5446 20.7198C21.7982 20.2221 21.9061 19.6802 21.9576 19.0502C22.0084 18.4289 22.0078 17.658 22.0078 16.6903H20.5078ZM15.6578 23.0403C16.6255 23.0403 17.3964 23.0409 18.0177 22.9901C18.6477 22.9387 19.1896 22.8307 19.6873 22.5771L19.0063 21.2406C18.7553 21.3685 18.4328 21.4512 17.8955 21.4951C17.3495 21.5397 16.6503 21.5403 15.6578 21.5403V23.0403ZM20.2081 20.0388C19.9444 20.5562 19.5237 20.9769 19.0063 21.2406L19.6873 22.5771C20.4869 22.1696 21.1371 21.5195 21.5446 20.7198L20.2081 20.0388ZM20.0245 9.21448C20.3092 9.49915 20.3617 9.55845 20.3973 9.61654L21.6762 8.83279C21.5263 8.58812 21.3194 8.388 21.0852 8.15382L20.0245 9.21448ZM22.0078 10.3812C22.0078 10.05 22.0126 9.76218 21.9456 9.48316L20.4871 9.83333C20.503 9.89956 20.5078 9.97862 20.5078 10.3812H22.0078ZM20.3973 9.61654C20.4384 9.68364 20.4687 9.7568 20.4871 9.83333L21.9456 9.48316C21.8905 9.25358 21.7996 9.0341 21.6762 8.83279L20.3973 9.61654ZM14.5863 4.45967C14.9888 4.45967 15.0679 4.46449 15.1341 4.48039L15.4843 3.02184C15.2053 2.95485 14.9175 2.95967 14.5863 2.95967V4.45967ZM16.8137 3.88228C16.5795 3.6481 16.3793 3.44116 16.1347 3.29123L15.3509 4.57019C15.409 4.60578 15.4683 4.65827 15.753 4.94294L16.8137 3.88228ZM15.1341 4.48039C15.2107 4.49877 15.2838 4.52907 15.3509 4.57019L16.1347 3.29123C15.9334 3.16787 15.7139 3.07696 15.4843 3.02184L15.1341 4.48039ZM6.52393 9.30968C6.52393 8.31721 6.52451 7.61796 6.56912 7.07195C6.61301 6.5347 6.69577 6.21219 6.82366 5.9612L5.48715 5.28021C5.23356 5.77791 5.12558 6.31979 5.0741 6.94981C5.02334 7.57106 5.02393 8.34196 5.02393 9.30968H6.52393ZM11.3739 2.95967C10.4062 2.95967 9.63532 2.95909 9.01406 3.00985C8.38405 3.06132 7.84216 3.1693 7.34447 3.42289L8.02545 4.7594C8.27645 4.63151 8.59895 4.54876 9.13621 4.50486C9.68221 4.46025 10.3815 4.45967 11.3739 4.45967V2.95967ZM6.82366 5.9612C7.08731 5.44375 7.50801 5.02305 8.02545 4.7594L7.34447 3.42289C6.54478 3.83036 5.89461 4.48052 5.48715 5.28021L6.82366 5.9612ZM5.02393 16.6903C5.02393 17.658 5.02334 18.4289 5.0741 19.0502C5.12558 19.6802 5.23356 20.2221 5.48715 20.7198L6.82366 20.0388C6.69577 19.7878 6.61301 19.4653 6.56912 18.928C6.52451 18.382 6.52393 17.6828 6.52393 16.6903H5.02393ZM11.3739 21.5403C10.3815 21.5403 9.68222 21.5397 9.13621 21.4951C8.59896 21.4512 8.27645 21.3685 8.02545 21.2406L7.34447 22.5771C7.84216 22.8307 8.38405 22.9387 9.01406 22.9901C9.63532 23.0409 10.4062 23.0403 11.3739 23.0403V21.5403ZM5.48715 20.7198C5.89461 21.5195 6.54478 22.1696 7.34447 22.5771L8.02545 21.2406C7.50801 20.9769 7.08731 20.5562 6.82366 20.0388L5.48715 20.7198Z" fill="#A0AAC6"/>
    <path d="M16.1565 9.68523L15.816 10.3535L16.1565 9.68523ZM14.3145 3.70967V6.70322H15.8145V3.70967H14.3145ZM18.2645 10.6532H21.258V9.15322H18.2645V10.6532ZM14.3145 6.70322C14.3145 7.25089 14.3139 7.70676 14.3442 8.07789C14.3752 8.45777 14.4423 8.81443 14.6142 9.15169L15.9507 8.47071C15.9046 8.38015 15.8627 8.24287 15.8392 7.95574C15.815 7.65986 15.8145 7.27565 15.8145 6.70322H14.3145ZM18.2645 9.15322C17.692 9.15322 17.3078 9.15264 17.0119 9.12846C16.7248 9.105 16.5875 9.06312 16.497 9.01698L15.816 10.3535C16.1532 10.5253 16.5099 10.5924 16.8898 10.6235C17.2609 10.6538 17.7168 10.6532 18.2645 10.6532V9.15322ZM14.6142 9.15169C14.8778 9.66914 15.2985 10.0898 15.816 10.3535L16.497 9.01698C16.2618 8.89714 16.0705 8.70591 15.9507 8.47071L14.6142 9.15169Z" fill="#A0AAC6"/>
</svg>
