<svg width="24" height="24" viewBox="0 0 24 24" fill="none" xmlns="http://www.w3.org/2000/svg">
    <path fill-rule="evenodd" clip-rule="evenodd" d="M13.1001 3.90003H10.6001C9.60516 3.90003 8.91308 3.90073 8.37459 3.94472C7.84662 3.98786 7.54605 4.06809 7.31972 4.18341C6.8305 4.43268 6.43275 4.83043 6.18348 5.31965C6.06816 5.54598 5.98793 5.84655 5.94479 6.37452C5.9008 6.913 5.9001 7.60508 5.9001 8.60003V15.4C5.9001 16.395 5.9008 17.0871 5.94479 17.6255C5.98793 18.1535 6.06816 18.4541 6.18348 18.6804C6.43275 19.1696 6.8305 19.5674 7.31972 19.8166C7.54605 19.932 7.84662 20.0122 8.37459 20.0553C8.91308 20.0993 9.60516 20.1 10.6001 20.1H14.4001C15.395 20.1 16.0871 20.0993 16.6256 20.0553C17.1536 20.0122 17.4541 19.932 17.6805 19.8166C18.1697 19.5674 18.5674 19.1696 18.8167 18.6804C18.932 18.4541 19.0123 18.1535 19.0554 17.6255C19.0994 17.087 19.1001 16.395 19.1001 15.4V9.90003H17.2001L17.1647 9.90003C16.6348 9.90004 16.1836 9.90005 15.8132 9.86979C15.4241 9.83799 15.0455 9.76836 14.6835 9.58395C14.1379 9.30591 13.6942 8.86227 13.4162 8.3166C13.2318 7.95467 13.1621 7.57607 13.1303 7.18691C13.1001 6.81648 13.1001 6.3653 13.1001 5.83543L13.1001 5.80003V3.90003ZM18.3273 8.10003L14.9001 4.67282V5.80003C14.9001 6.37493 14.9008 6.75198 14.9244 7.04033C14.9471 7.31818 14.9864 7.43353 15.02 7.49942C15.1255 7.70639 15.2937 7.87467 15.5007 7.98013C15.5666 8.01371 15.6819 8.05307 15.9598 8.07577C16.2481 8.09933 16.6252 8.10003 17.2001 8.10003H18.3273ZM14.439 2.16634C14.1596 2.09924 13.8728 2.0996 13.5732 2.09997L13.506 2.10003H10.6001H10.5617C9.61419 2.10002 8.84844 2.10001 8.22802 2.1507C7.58873 2.20293 7.02491 2.31344 6.50254 2.5796C5.67463 3.00144 5.00151 3.67455 4.57967 4.50247C4.31351 5.02483 4.203 5.58866 4.15077 6.22794C4.10008 6.84837 4.10009 7.61412 4.1001 8.56162V8.60003V15.4V15.4384C4.10009 16.3859 4.10008 17.1517 4.15077 17.7721C4.203 18.4114 4.31351 18.9752 4.57967 19.4976C5.00151 20.3255 5.67463 20.9986 6.50254 21.4205C7.02491 21.6866 7.58873 21.7971 8.22802 21.8494C8.84844 21.9 9.61419 21.9 10.5617 21.9H10.6001H14.4001H14.4385C15.386 21.9 16.1518 21.9 16.7722 21.8494C17.4115 21.7971 17.9753 21.6866 18.4977 21.4205C19.3256 20.9986 19.9987 20.3255 20.4205 19.4976C20.6867 18.9752 20.7972 18.4114 20.8494 17.7721C20.9001 17.1517 20.9001 16.3859 20.9001 15.4384V15.4V9.49414L20.9002 9.42693C20.9005 9.12731 20.9009 8.84055 20.8338 8.56108C20.775 8.31619 20.678 8.08208 20.5464 7.86735C20.3963 7.62229 20.1932 7.41978 19.9811 7.20818L19.9335 7.16069L15.8394 3.06657L15.792 3.01901C15.5804 2.80688 15.3778 2.60387 15.1328 2.45369C14.918 2.3221 14.6839 2.22513 14.439 2.16634Z" fill="#F7990D"/>
</svg>
