<svg width="26" height="26" viewBox="0 0 26 26" fill="none" xmlns="http://www.w3.org/2000/svg">
    <path fill-rule="evenodd" clip-rule="evenodd" d="M20.4643 11.4298L20.4436 10.9513H19.9647H15.1287C14.229 10.9513 13.4997 10.222 13.4997 9.32231V4.18149V3.74411L13.0662 3.68593C12.9508 3.67045 12.834 3.66257 12.7164 3.66257L9.32651 3.66257C7.44695 3.66256 5.92328 5.18624 5.92328 7.06579V18.9997C5.92328 20.8793 7.44695 22.4029 9.3265 22.4029L17.0642 22.4029C18.9437 22.403 20.4674 20.8793 20.4674 18.9997V11.5767C20.4674 11.5276 20.4664 11.4786 20.4643 11.4298ZM15.2829 5.11676L14.4352 4.29636V5.47606V9.32231C14.4352 9.70534 14.7457 10.0159 15.1287 10.0159H19.1091H20.3228L19.4613 9.16095L19.4309 9.13113L19.4309 9.13112L15.2829 5.11676ZM4.98779 7.06579C4.98779 4.66958 6.9303 2.72708 9.32651 2.72708L12.7164 2.72709C13.2169 2.72709 13.7068 2.83237 14.1564 3.03088C14.5378 3.1993 14.8902 3.43487 15.1953 3.73018L20.0815 8.4589C20.6252 8.98515 21.0166 9.63893 21.2263 10.3515C21.3424 10.7458 21.4029 11.158 21.4029 11.5767V18.9997C21.4029 21.3959 19.4604 23.3384 17.0642 23.3384L9.3265 23.3384C6.9303 23.3384 4.98779 21.3959 4.98779 18.9997V7.06579Z" fill="#3F8CD6"/>
</svg>
