<svg width="16" height="16" viewBox="0 0 16 16" fill="none" xmlns="http://www.w3.org/2000/svg">
    <path d="M12 12.25C12.4142 12.25 12.75 12.5858 12.75 13C12.75 13.4142 12.4142 13.75 12 13.75H4C3.58579 13.75 3.25 13.4142 3.25 13C3.25 12.5858 3.58579 12.25 4 12.25H12ZM8 1.25C8.41421 1.25 8.75 1.58579 8.75 2V8.189L10.4697 6.46967C10.7359 6.2034 11.1526 6.1792 11.4462 6.39705L11.5303 6.46967C11.8232 6.76256 11.8232 7.23744 11.5303 7.53033L8.53033 10.5303C8.50573 10.5549 8.47943 10.5778 8.45162 10.5988C8.44113 10.6068 8.43066 10.6143 8.42005 10.6215C8.40366 10.6325 8.38651 10.6432 8.36892 10.6531C8.35462 10.6613 8.33999 10.6689 8.32517 10.6761C8.30751 10.6846 8.28909 10.6925 8.27031 10.6998C8.25946 10.704 8.24909 10.7077 8.23866 10.7112C8.21728 10.7184 8.19483 10.7248 8.17197 10.7302C8.15973 10.733 8.14803 10.7354 8.1363 10.7376C8.09269 10.7457 8.04685 10.75 8 10.75L8.07339 10.7464C8.05876 10.7479 8.04409 10.7489 8.02941 10.7494L8 10.75C7.99019 10.75 7.98042 10.7498 7.97069 10.7494C7.95624 10.7489 7.9409 10.7478 7.9256 10.7463C7.90388 10.7442 7.88322 10.7413 7.86284 10.7375C7.85197 10.7354 7.84027 10.733 7.82863 10.7303C7.80517 10.7248 7.78272 10.7184 7.76072 10.711C7.75091 10.7077 7.74054 10.704 7.73025 10.7C7.71091 10.6925 7.69249 10.6846 7.67447 10.6759C7.66001 10.6689 7.64538 10.6613 7.63095 10.6531C7.61349 10.6432 7.59634 10.6325 7.57967 10.6212C7.54107 10.5952 7.50411 10.5648 7.46967 10.5303L7.54838 10.5988C7.52057 10.5778 7.49427 10.5549 7.46967 10.5303L4.46967 7.53033C4.17678 7.23744 4.17678 6.76256 4.46967 6.46967C4.76256 6.17678 5.23744 6.17678 5.53033 6.46967L7.25 8.189V2C7.25 1.6203 7.53215 1.30651 7.89823 1.25685L8 1.25Z" fill="#A0AAC6"/>
</svg>
