<svg width="24" height="24" viewBox="0 0 24 24" fill="none" xmlns="http://www.w3.org/2000/svg">
    <path fill-rule="evenodd" clip-rule="evenodd" d="M12.9 2.0001C12.9 1.50304 12.497 1.1001 12 1.1001C11.5029 1.1001 11.1 1.50304 11.1 2.0001V2.17476C8.8052 2.55975 7.0012 4.39206 6.65869 6.70096L6.58935 6.68983C6.45071 6.66735 6.34503 6.64879 6.27522 6.6361C6.24032 6.62975 6.2144 6.62488 6.19782 6.62171L6.18 6.61827L6.17647 6.61758C5.68922 6.52037 5.2149 6.83634 5.11745 7.32359C5.01997 7.811 5.33606 8.28514 5.82346 8.38262L5.82485 8.3829L5.82716 8.38335L5.8345 8.3848L5.85998 8.38972C5.88173 8.39387 5.91294 8.39974 5.95323 8.40706C6.03382 8.42172 6.15079 8.44222 6.30122 8.46662C6.56027 8.50863 6.91878 8.5622 7.3617 8.61725C7.35393 8.72718 7.34998 8.83817 7.34998 8.95009C7.34998 11.519 9.43104 13.6001 12 13.6001C14.5689 13.6001 16.65 11.519 16.65 8.95009C16.65 8.83817 16.646 8.72718 16.6383 8.61725C17.0812 8.5622 17.4397 8.50863 17.6987 8.46662C17.8491 8.44222 17.9661 8.42172 18.0467 8.40706C18.087 8.39974 18.1182 8.39387 18.14 8.38972L18.1654 8.3848L18.1728 8.38335L18.1751 8.3829L18.1762 8.38267C18.6636 8.28519 18.98 7.811 18.8825 7.32359C18.785 6.83626 18.311 6.52018 17.8237 6.61753L17.8199 6.61827L17.8021 6.62171C17.7855 6.62488 17.7596 6.62975 17.7247 6.6361C17.6549 6.64879 17.5492 6.66735 17.4106 6.68983L17.3412 6.70096C16.9987 4.39206 15.1947 2.55975 12.9 2.17476V2.0001ZM11.1001 4.01349C11.1072 4.50437 11.5074 4.9001 12 4.9001C12.4926 4.9001 12.8927 4.50437 12.8999 4.01349C14.272 4.3666 15.3275 5.50827 15.5545 6.92659C14.5923 7.02097 13.3752 7.1001 12 7.1001C10.6248 7.1001 9.40768 7.02098 8.4454 6.92659C8.67246 5.50827 9.72798 4.3666 11.1001 4.01349ZM9.15416 8.79416C9.15138 8.84578 9.14998 8.89777 9.14998 8.95009C9.14998 10.5249 10.4252 11.8001 12 11.8001C13.5748 11.8001 14.85 10.5249 14.85 8.95009C14.85 8.89777 14.8486 8.84578 14.8458 8.79416C14.0103 8.85625 13.049 8.9001 12 8.9001C10.9509 8.9001 9.98962 8.85625 9.15416 8.79416ZM5.92766 20.0809C5.88723 20.046 5.88947 19.9616 5.89471 19.7649C5.89704 19.677 5.89998 19.5668 5.89998 19.4287C5.89998 17.5361 8.67817 16.4001 12 16.4001C15.3218 16.4001 18.1 17.5361 18.1 19.4287C18.1 19.5668 18.1029 19.677 18.1052 19.7648C18.1105 19.9616 18.1127 20.046 18.0723 20.0809C18.0419 20.1071 17.9876 20.1054 17.8924 20.1025C17.8561 20.1014 17.8138 20.1001 17.7647 20.1001H6.23527C6.18614 20.1001 6.14389 20.1014 6.10757 20.1025C6.01239 20.1054 5.95801 20.1071 5.92766 20.0809ZM12 14.6001C7.77276 14.6001 4.09998 16.1019 4.09998 19.4287C4.09998 21.1643 4.78551 21.9001 6.23527 21.9001H17.7647C19.2144 21.9001 19.9 21.1643 19.9 19.4287C19.9 16.1019 16.2272 14.6001 12 14.6001Z" fill="#3F8CD6"/>
</svg>
