<svg width="24" height="24" viewBox="0 0 24 24" fill="none" xmlns="http://www.w3.org/2000/svg">
    <path fill-rule="evenodd" clip-rule="evenodd" d="M0.15013 11.1852C-0.0186778 9.73894 1.03432 8.46154 2.39529 8.46154H21.6042C22.9652 8.46154 24.0182 9.73894 23.8494 11.1852L22.8832 19.4624C22.6474 21.4834 21.0431 23 19.1413 23H4.85822C2.95639 23 1.35218 21.4834 1.11628 19.4624L0.15013 11.1852Z" fill="#3F8CD6"/>
    <path fill-rule="evenodd" clip-rule="evenodd" d="M1.44079 4.42321C1.44079 3.08506 2.45373 2 3.70343 2H7.87261C9.31733 2 10.5286 2.90455 11.3593 3.91258C11.9775 4.66278 12.7219 5.23077 13.5082 5.23077H21.0509C21.8846 5.23077 22.5587 5.95476 22.5587 6.84615C15.5194 6.84615 8.48011 6.84615 1.44079 6.84615V4.42321Z" fill="#3F8CD6"/>
</svg>
