<svg width="24" height="24" viewBox="0 0 24 24" fill="none" xmlns="http://www.w3.org/2000/svg">
    <path fill-rule="evenodd" clip-rule="evenodd" d="M7.2001 5.09998H7.16469C6.63482 5.09996 6.18364 5.09995 5.81321 5.13021C5.42405 5.16201 5.04546 5.23164 4.68352 5.41606C4.13785 5.69409 3.69421 6.13773 3.41618 6.6834C3.23176 7.04534 3.16213 7.42393 3.13033 7.81309C3.10007 8.18352 3.10008 8.6347 3.1001 9.16457L3.1001 9.19998V17.1H2.06296C0.932595 17.1 0.741169 18.7178 1.84033 18.9816L3.65493 19.4171C3.88423 19.4721 4.11923 19.5 4.35504 19.5H19.6451C19.881 19.5 20.1159 19.4721 20.3453 19.4171L22.1599 18.9816C23.259 18.7178 23.0676 17.1 21.9372 17.1H20.9001V9.19998V9.16457C20.9001 8.6347 20.9001 8.18352 20.8699 7.81309C20.8381 7.42393 20.7684 7.04534 20.584 6.6834C20.306 6.13773 19.8623 5.69409 19.3167 5.41606C18.9547 5.23164 18.5761 5.16201 18.187 5.13021C17.8165 5.09995 17.3654 5.09996 16.8355 5.09998H16.8001H7.2001ZM19.1001 17.1V9.19998C19.1001 8.62507 19.0994 8.24802 19.0758 7.95967C19.0531 7.68182 19.0138 7.56648 18.9802 7.50059C18.8747 7.29361 18.7065 7.12533 18.4995 7.01987C18.4336 6.9863 18.3183 6.94694 18.0404 6.92424C17.752 6.90068 17.375 6.89998 16.8001 6.89998H7.2001C6.62519 6.89998 6.24814 6.90068 5.95979 6.92424C5.68194 6.94694 5.5666 6.9863 5.50071 7.01987C5.29373 7.12533 5.12545 7.29361 5.01999 7.50059C4.98642 7.56648 4.94706 7.68182 4.92436 7.95967C4.9008 8.24802 4.9001 8.62507 4.9001 9.19998V17.1H19.1001Z" fill="#F7990D"/>
</svg>
