<svg width="16" height="16" viewBox="0 0 16 16" fill="none" xmlns="http://www.w3.org/2000/svg">
    <path d="M8 1.14285C11.7871 1.14285 14.8571 4.2129 14.8571 8C14.8571 11.7871 11.7871 14.8571 8 14.8571C4.2129 14.8571 1.14285 11.7871 1.14285 8C1.14285 4.2129 4.2129 1.14285 8 1.14285ZM8 2C4.68629 2 2 4.68629 2 8C2 11.3137 4.68629 14 8 14C11.3137 14 14 11.3137 14 8C14 4.68629 11.3137 2 8 2ZM10.1429 5.42857C10.3656 5.42857 10.5487 5.59853 10.5695 5.81586L10.5714 5.85714V9.28571C10.5714 9.5224 10.3795 9.71428 10.1429 9.71428C9.92008 9.71428 9.73701 9.54431 9.71624 9.32698L9.71428 9.28571V6.89142L6.16018 10.4459C5.99282 10.6133 5.72146 10.6133 5.55409 10.4459C5.39719 10.289 5.38738 10.0407 5.52467 9.87236L5.55409 9.83981L9.108 6.28571H6.71428C6.49151 6.28571 6.30844 6.11574 6.28767 5.89841L6.28571 5.85714C6.28571 5.63437 6.45568 5.4513 6.67301 5.43053L6.71428 5.42857H10.1429Z" fill="#3F8CD6"/>
</svg>
