<svg width="16" height="16" viewBox="0 0 16 16" fill="none" xmlns="http://www.w3.org/2000/svg">
    <path fill-rule="evenodd" clip-rule="evenodd" d="M9.50617 4.98536L3.48144 11.0101C3.34391 11.1476 3.26665 11.3342 3.26665 11.5287L3.26665 12.6667C3.26665 12.7035 3.2965 12.7334 3.33332 12.7334H4.47139C4.66588 12.7334 4.8524 12.6561 4.98993 12.5186L11.0147 6.49386L9.50617 4.98536ZM10.3547 4.13683L11.8632 5.64533L12.6174 4.89108C12.7737 4.73487 12.7737 4.48161 12.6174 4.3254L11.6746 3.38259C11.5184 3.22638 11.2652 3.22638 11.1089 3.38259L10.3547 4.13683ZM2.63291 10.1616L10.2604 2.53406C10.8853 1.90922 11.8983 1.90922 12.5232 2.53406L13.466 3.47687C14.0908 4.10171 14.0908 5.11477 13.466 5.73961L5.83846 13.3671C5.47589 13.7297 4.98414 13.9334 4.47139 13.9334L3.33332 13.9334C2.63376 13.9334 2.06665 13.3663 2.06665 12.6667L2.06665 11.5287C2.06665 11.0159 2.27034 10.5242 2.63291 10.1616Z" fill="#858DA6"/>
</svg>
