<svg width="24" height="24" viewBox="0 0 24 24" fill="none" xmlns="http://www.w3.org/2000/svg">
    <path fill-rule="evenodd" clip-rule="evenodd" d="M4.2457 19.7439C2.00689 17.5051 2.00689 13.8753 4.2457 11.6364L11.6161 4.26603C13.8549 2.02721 17.4848 2.02721 19.7236 4.26602C21.9624 6.50483 21.9624 10.1347 19.7236 12.3735L12.3532 19.7439C10.1144 21.9827 6.48451 21.9827 4.2457 19.7439ZM9.61821 8.6883L12.8283 5.47821C14.3976 3.90886 16.9421 3.90886 18.5114 5.4782C20.0807 7.04755 20.0807 9.59196 18.5114 11.1613L15.3013 14.3714L9.61821 8.6883ZM8.40603 9.90048L5.45788 12.8486C3.88854 14.418 3.88854 16.9624 5.45788 18.5317C7.02722 20.1011 9.57164 20.1011 11.141 18.5317L14.0891 15.5836L8.40603 9.90048Z" fill="#3F8CD6"/>
</svg>
