<svg width="24" height="24" viewBox="0 0 24 24" fill="none" xmlns="http://www.w3.org/2000/svg">
    <path d="M8.5 13C9.88071 13 11 14.1193 11 15.5V19.5C11 20.8807 9.88071 22 8.5 22H4.5C3.11929 22 2 20.8807 2 19.5V15.5C2 14.1193 3.11929 13 4.5 13H8.5ZM21 19C21.2761 19 21.5 19.2239 21.5 19.5V21C21.5 21.2761 21.2761 21.5 21 21.5H19.5C19.2239 21.5 19 21.2761 19 21V19.5C19 19.2239 19.2239 19 19.5 19H21ZM15.5 19C15.7761 19 16 19.2239 16 19.5V21C16 21.2761 15.7761 21.5 15.5 21.5H14C13.7239 21.5 13.5 21.2761 13.5 21V19.5C13.5 19.2239 13.7239 19 14 19H15.5ZM8.25 14.75H4.75C4.19772 14.75 3.75 15.1977 3.75 15.75V19.25C3.75 19.8023 4.19772 20.25 4.75 20.25H8.25C8.80228 20.25 9.25 19.8023 9.25 19.25V15.75C9.25 15.1977 8.80228 14.75 8.25 14.75ZM18.25 16.25C18.5261 16.25 18.75 16.4739 18.75 16.75V18.25C18.75 18.5261 18.5261 18.75 18.25 18.75H16.75C16.4739 18.75 16.25 18.5261 16.25 18.25V16.75C16.25 16.4739 16.4739 16.25 16.75 16.25H18.25ZM7.25 16.25C7.52614 16.25 7.75 16.4739 7.75 16.75V18.25C7.75 18.5261 7.52614 18.75 7.25 18.75H5.75C5.47386 18.75 5.25 18.5261 5.25 18.25V16.75C5.25 16.4739 5.47386 16.25 5.75 16.25H7.25ZM21 13.5C21.2761 13.5 21.5 13.7239 21.5 14V15.5C21.5 15.7761 21.2761 16 21 16H19.5C19.2239 16 19 15.7761 19 15.5V14C19 13.7239 19.2239 13.5 19.5 13.5H21ZM15.5 13.5C15.7761 13.5 16 13.7239 16 14V15.5C16 15.7761 15.7761 16 15.5 16H14C13.7239 16 13.5 15.7761 13.5 15.5V14C13.5 13.7239 13.7239 13.5 14 13.5H15.5ZM19.5 2C20.8807 2 22 3.11929 22 4.5V8.5C22 9.88071 20.8807 11 19.5 11H15.5C14.1193 11 13 9.88071 13 8.5V4.5C13 3.11929 14.1193 2 15.5 2H19.5ZM8.5 2C9.88071 2 11 3.11929 11 4.5V8.5C11 9.88071 9.88071 11 8.5 11H4.5C3.11929 11 2 9.88071 2 8.5V4.5C2 3.11929 3.11929 2 4.5 2H8.5ZM19.25 3.75H15.75C15.1977 3.75 14.75 4.19772 14.75 4.75V8.25C14.75 8.80228 15.1977 9.25 15.75 9.25H19.25C19.8023 9.25 20.25 8.80228 20.25 8.25V4.75C20.25 4.19772 19.8023 3.75 19.25 3.75ZM8.25 3.75H4.75C4.19772 3.75 3.75 4.19772 3.75 4.75V8.25C3.75 8.80228 4.19772 9.25 4.75 9.25H8.25C8.80228 9.25 9.25 8.80228 9.25 8.25V4.75C9.25 4.19772 8.80228 3.75 8.25 3.75ZM18.25 5.25C18.5261 5.25 18.75 5.47386 18.75 5.75V7.25C18.75 7.52614 18.5261 7.75 18.25 7.75H16.75C16.4739 7.75 16.25 7.52614 16.25 7.25V5.75C16.25 5.47386 16.4739 5.25 16.75 5.25H18.25ZM7.25 5.25C7.52614 5.25 7.75 5.47386 7.75 5.75V7.25C7.75 7.52614 7.52614 7.75 7.25 7.75H5.75C5.47386 7.75 5.25 7.52614 5.25 7.25V5.75C5.25 5.47386 5.47386 5.25 5.75 5.25H7.25Z" fill="#3F8CD6"/>
</svg>
