<svg width="24" height="24" viewBox="0 0 24 24" fill="none" xmlns="http://www.w3.org/2000/svg">
    <path d="M12.0003 10.0639C12.0003 10.1302 11.9756 10.1942 11.931 10.2432C11.8319 10.3522 11.6633 10.3602 11.5543 10.2612L8.69541 7.6622C8.68497 7.65271 8.675 7.64274 8.66551 7.6323C8.5004 7.45068 8.51378 7.16959 8.69541 7.00448L11.5543 4.4055C11.6034 4.36088 11.6673 4.33615 11.7337 4.33615C11.8809 4.33615 12.0003 4.45554 12.0003 4.60282L12.0003 6.66667C14.9458 6.66667 17.3337 9.05449 17.3337 12C17.3337 14.9455 14.9458 17.3333 12.0003 17.3333C9.05481 17.3333 6.66699 14.9455 6.66699 12C6.66699 11.6318 6.96547 11.3333 7.33366 11.3333C7.70185 11.3333 8.00033 11.6318 8.00033 12C8.00033 14.2091 9.79119 16 12.0003 16C14.2095 16 16.0003 14.2091 16.0003 12C16.0003 9.79087 14.2095 8 12.0003 8L12.0003 10.0639Z" fill="#3F8CD6"/>
</svg>
