<svg width="24" height="24" viewBox="0 0 24 24" fill="none" xmlns="http://www.w3.org/2000/svg">
    <path fill-rule="evenodd" clip-rule="evenodd" d="M16.6237 4.31666C16.2099 3.90285 15.8681 3.5612 15.5661 3.30595C15.2577 3.04522 14.945 2.83405 14.5732 2.71326C13.9906 2.52396 13.363 2.52396 12.7804 2.71326C12.4047 2.83533 12.0892 3.04975 11.7774 3.31443C11.4773 3.56928 11.1366 3.90996 10.7238 4.32274L4.32287 10.7237C3.91009 11.1365 3.5694 11.4771 3.31456 11.7773C3.04987 12.0891 2.83545 12.4046 2.71339 12.7803C2.52409 13.3629 2.52409 13.9905 2.71338 14.5731C2.83418 14.9448 3.04534 15.2575 3.30607 15.566C3.56132 15.868 3.90298 16.2098 4.31679 16.6236C4.57906 16.8859 4.99697 16.908 5.28544 16.6748C5.85442 16.2149 6.69165 16.2499 7.22078 16.7791C7.7499 17.3082 7.78489 18.1454 7.32501 18.7144C7.09185 19.0029 7.11395 19.4208 7.37624 19.683C7.79007 20.0969 8.13181 20.4385 8.43382 20.6938C8.74231 20.9545 9.05502 21.1657 9.42678 21.2865C10.0094 21.4758 10.6369 21.4758 11.2196 21.2865C11.5952 21.1644 11.9107 20.95 12.2225 20.6853C12.5227 20.4304 12.8634 20.0898 13.2761 19.677L19.6771 13.276C20.0899 12.8633 20.4306 12.5226 20.6854 12.2224C20.9501 11.9106 21.1645 11.5951 21.2866 11.2194C21.4759 10.6368 21.4759 10.0093 21.2866 9.42666C21.1658 9.05489 20.9546 8.74219 20.6939 8.4337C20.4386 8.13169 20.097 7.78995 19.6832 7.37612C19.4209 7.11383 19.003 7.09173 18.7145 7.3249C18.1455 7.78478 17.3083 7.7498 16.7792 7.22067C16.25 6.69154 16.215 5.8543 16.6749 5.28532C16.9081 4.99685 16.886 4.57893 16.6237 4.31666ZM14.125 4.09266C14.2447 4.13156 14.3912 4.21194 14.6299 4.41368C14.7886 4.5478 14.9675 4.71732 15.1904 4.9367C14.6706 6.01653 14.8582 7.35088 15.7536 8.24625C16.6489 9.14161 17.9833 9.32918 19.0631 8.8094C19.2825 9.03235 19.452 9.21125 19.5862 9.36994C19.7879 9.60863 19.8683 9.75513 19.9072 9.87485C20.0018 10.1661 20.0018 10.4799 19.9072 10.7712C19.8678 10.8923 19.7862 11.0406 19.5797 11.2837C19.3678 11.5334 19.0696 11.8324 18.6303 12.2716L17.4142 13.4877L16.5013 12.5748C16.2181 12.2916 15.759 12.2916 15.4758 12.5748C15.1925 12.858 15.1925 13.3172 15.4758 13.6004L16.3887 14.5133L12.2718 18.6302C11.8325 19.0695 11.5335 19.3677 11.2839 19.5796C11.0407 19.786 10.8924 19.8677 10.7714 19.9071C10.4801 20.0017 10.1663 20.0017 9.87497 19.9071C9.75525 19.8682 9.60876 19.7878 9.37006 19.586C9.21137 19.4519 9.03247 19.2824 8.80951 19.063C9.32929 17.9832 9.14171 16.6488 8.24636 15.7535C7.35099 14.8581 6.01666 14.6705 4.93683 15.1903C4.71744 14.9674 4.54792 14.7885 4.41381 14.6298C4.21206 14.3911 4.13168 14.2446 4.09278 14.1249C3.99813 13.8336 3.99813 13.5198 4.09278 13.2285C4.13212 13.1074 4.2138 12.9592 4.42024 12.716C4.63219 12.4663 4.93038 12.1673 5.36962 11.7281L9.48653 7.61118L10.3994 8.52405C10.6826 8.80725 11.1418 8.80725 11.425 8.52405C11.7082 8.24084 11.7082 7.78167 11.425 7.49847L10.5121 6.5856L11.7282 5.3695C12.1674 4.93026 12.4664 4.63206 12.7161 4.42012C12.9593 4.21367 13.1075 4.132 13.2286 4.09266C13.5199 3.99801 13.8337 3.99801 14.125 4.09266ZM13.4193 9.49275C13.1361 9.20954 12.6769 9.20954 12.3937 9.49275C12.1105 9.77596 12.1105 10.2351 12.3937 10.5183L13.4815 11.6061C13.7647 11.8893 14.2238 11.8893 14.5071 11.6061C14.7903 11.3229 14.7903 10.8637 14.5071 10.5805L13.4193 9.49275Z" fill="#3F8CD6"/>
</svg>
