<svg width="24" height="24" viewBox="0 0 24 24" fill="none" xmlns="http://www.w3.org/2000/svg">
    <path fill-rule="evenodd" clip-rule="evenodd" d="M3.12687 10.7818C3.24743 10.2996 3.73607 10.0064 4.21828 10.127L4 11.0001C4.21828 10.127 4.21843 10.127 4.21828 10.127L4.22165 10.1278L4.24233 10.1327C4.26185 10.1374 4.29279 10.1446 4.3349 10.154C4.41912 10.1728 4.54803 10.2004 4.71968 10.234C5.063 10.3012 5.57716 10.3921 6.24659 10.4834C7.58562 10.6659 9.54481 10.8501 12 10.8501C14.4552 10.8501 16.4144 10.6659 17.7534 10.4834C18.4228 10.3921 18.937 10.3012 19.2803 10.234C19.452 10.2004 19.5809 10.1728 19.6651 10.154C19.7072 10.1446 19.7381 10.1374 19.7577 10.1327L19.7784 10.1278L19.7817 10.127C19.7819 10.1269 19.7816 10.127 19.7817 10.127C20.2637 10.0069 20.7526 10.2999 20.8731 10.7818C20.9937 11.264 20.7005 11.7527 20.2183 11.8732L20 11.0001C20.2183 11.8732 20.2185 11.8732 20.2183 11.8732L20.2134 11.8744L20.2041 11.8767L20.1725 11.8843C20.1456 11.8907 20.1072 11.8996 20.0576 11.9107C19.9582 11.9329 19.8137 11.9638 19.6259 12.0005C19.2505 12.074 18.7022 12.1706 17.9966 12.2668C16.5856 12.4593 14.5448 12.6501 12 12.6501C9.45516 12.6501 7.41436 12.4593 6.00339 12.2668C5.29783 12.1706 4.74949 12.074 4.37406 12.0005C4.18634 11.9638 4.04181 11.9329 3.94244 11.9107C3.89276 11.8996 3.85436 11.8907 3.82749 11.8843L3.79587 11.8767L3.7866 11.8744L3.78361 11.8737L3.78252 11.8734C3.78233 11.8734 3.78172 11.8732 4 11.0001L3.78252 11.8734C3.30031 11.7529 3.00632 11.264 3.12687 10.7818ZM4.21828 10.127C4.2182 10.127 4.218 10.1269 4.21828 10.127V10.127Z" fill="#3F8CD6"/>
    <path d="M21 16.5001C21 17.3285 20.3284 18.0001 19.5 18.0001H19V19.2001C19 19.4801 19 19.6201 19.0545 19.7271C19.1024 19.8212 19.1789 19.8977 19.273 19.9456C19.38 20.0001 19.52 20.0001 19.8 20.0001H20.2C20.48 20.0001 20.62 20.0001 20.727 19.9456C20.8211 19.8977 20.8976 19.8212 20.9455 19.7271C21 19.6201 21 19.4801 21 19.2001V16.5001Z" fill="#3F8CD6"/>
    <path fill-rule="evenodd" clip-rule="evenodd" d="M20.1 19.1001H19.9V18.8669C19.9677 18.8556 20.0344 18.8414 20.1 18.8245V19.1001ZM21.9 16.5001V19.2001C21.9 19.2074 21.9 19.2148 21.9 19.2222C21.9 19.3424 21.9001 19.4807 21.8902 19.6018C21.8788 19.7408 21.8501 19.9342 21.7474 20.1357C21.6132 20.3991 21.399 20.6133 21.1356 20.7475C20.9341 20.8502 20.7407 20.8789 20.6017 20.8903C20.4806 20.9002 20.3423 20.9001 20.2221 20.9001C20.2147 20.9001 20.2073 20.9001 20.2 20.9001H19.8C19.7927 20.9001 19.7853 20.9001 19.7779 20.9001C19.6577 20.9001 19.5194 20.9002 19.3983 20.8903C19.2593 20.8789 19.0659 20.8502 18.8644 20.7475C18.601 20.6133 18.3868 20.3991 18.2526 20.1357C18.1499 19.9342 18.1212 19.7408 18.1098 19.6018C18.0999 19.4807 18.1 19.3424 18.1 19.2222C18.1 19.2148 18.1 19.2074 18.1 19.2001V17.1001H19.5C19.8314 17.1001 20.1 16.8315 20.1 16.5001H21.9Z" fill="#3F8CD6"/>
    <path d="M3 16.5001C3 17.3285 3.67157 18.0001 4.5 18.0001H5V19.2001C5 19.4801 5 19.6201 4.9455 19.7271C4.89757 19.8212 4.82108 19.8977 4.727 19.9456C4.62004 20.0001 4.48003 20.0001 4.2 20.0001H3.8C3.51997 20.0001 3.37996 20.0001 3.273 19.9456C3.17892 19.8977 3.10243 19.8212 3.0545 19.7271C3 19.6201 3 19.4801 3 19.2001V16.5001Z" fill="#3F8CD6"/>
    <path fill-rule="evenodd" clip-rule="evenodd" d="M3.9 19.1001H4.1V18.8669C4.03233 18.8556 3.96562 18.8414 3.9 18.8245V19.1001ZM2.1 16.5001V19.2001C2.1 19.2074 2.1 19.2148 2.1 19.2222C2.09996 19.3424 2.09991 19.4807 2.1098 19.6018C2.12116 19.7408 2.14992 19.9342 2.25259 20.1357C2.38681 20.3991 2.60099 20.6133 2.86441 20.7475C3.06591 20.8502 3.25928 20.8789 3.39831 20.8903C3.51935 20.9002 3.65766 20.9001 3.7779 20.9001C3.78534 20.9001 3.79271 20.9001 3.8 20.9001H4.2C4.20729 20.9001 4.21466 20.9001 4.2221 20.9001C4.34234 20.9001 4.48065 20.9002 4.60169 20.8903C4.74072 20.8789 4.93409 20.8502 5.13559 20.7475C5.39901 20.6133 5.61319 20.3991 5.74741 20.1357C5.85008 19.9342 5.87884 19.7408 5.8902 19.6018C5.90009 19.4807 5.90004 19.3424 5.9 19.2222C5.9 19.2148 5.9 19.2074 5.9 19.2001V17.1001H4.5C4.16863 17.1001 3.9 16.8315 3.9 16.5001H2.1Z" fill="#3F8CD6"/>
    <path fill-rule="evenodd" clip-rule="evenodd" d="M9.66232 4.1001H14.3377C15.2008 4.10008 15.9166 4.10006 16.5047 4.16088C17.124 4.22491 17.6776 4.36203 18.1962 4.68256C18.7149 5.00309 19.0851 5.43691 19.4193 5.9622C19.7368 6.46108 20.0569 7.10131 20.4428 7.87329L21.9 10.7876V18.9001H2.1V10.7876L3.55718 7.87328C3.94314 7.10131 4.26324 6.46108 4.58067 5.9622C4.91491 5.43691 5.28513 5.00309 5.80375 4.68256C6.32237 4.36203 6.87596 4.22491 7.49527 4.16088C8.08344 4.10006 8.79923 4.10008 9.66232 4.1001ZM7.68039 5.95133C7.21635 5.99931 6.9564 6.08621 6.75007 6.21373C6.54373 6.34125 6.34976 6.5349 6.09932 6.92849C5.83768 7.33968 5.55833 7.89591 5.14663 8.71931L3.9 11.2126V17.1001H20.1V11.2126L18.8534 8.71931C18.4417 7.89591 18.1623 7.33968 17.9007 6.92849C17.6502 6.5349 17.4563 6.34125 17.2499 6.21373C17.0436 6.08621 16.7836 5.99931 16.3196 5.95133C15.8348 5.90121 15.2124 5.9001 14.2918 5.9001H9.70821C8.78762 5.9001 8.16518 5.90121 7.68039 5.95133Z" fill="#3F8CD6"/>
    <path fill-rule="evenodd" clip-rule="evenodd" d="M1 10.6145V10.3853C1 9.8964 1.3963 9.5001 1.88516 9.5001H4V11.0001L3.63731 11.7255C3.54886 11.9024 3.39856 12.0407 3.21493 12.1141C2.15403 12.5385 1 11.7572 1 10.6145ZM23 10.6145V10.3853C23 9.8964 22.6037 9.5001 22.1148 9.5001H20V11.0001L20.3627 11.7255C20.4511 11.9024 20.6014 12.0407 20.7851 12.1141C21.846 12.5385 23 11.7572 23 10.6145Z" fill="#3F8CD6"/>
    <path fill-rule="evenodd" clip-rule="evenodd" d="M5.10695 14.3885C5.1686 13.8953 5.61841 13.5454 6.11163 13.607L8.11163 13.857C8.60485 13.9187 8.9547 14.3685 8.89305 14.8617C8.8314 15.3549 8.38159 15.7048 7.88837 15.6431L5.88837 15.3931C5.39515 15.3315 5.0453 14.8817 5.10695 14.3885Z" fill="#3F8CD6"/>
    <path fill-rule="evenodd" clip-rule="evenodd" d="M18.8931 14.3885C18.8314 13.8953 18.3816 13.5454 17.8884 13.607L15.8884 13.857C15.3952 13.9187 15.0453 14.3685 15.107 14.8617C15.1686 15.3549 15.6184 15.7048 16.1116 15.6431L18.1116 15.3931C18.6048 15.3315 18.9547 14.8817 18.8931 14.3885Z" fill="#3F8CD6"/>
</svg>
