<svg width="24" height="24" viewBox="0 0 24 24" fill="none" xmlns="http://www.w3.org/2000/svg">
    <path d="M14.85 7.9498C14.85 6.37499 13.5748 5.0998 12 5.0998C10.4252 5.0998 9.14998 6.37499 9.14998 7.9498C9.14998 9.52462 10.4252 10.7998 12 10.7998C13.5748 10.7998 14.85 9.52462 14.85 7.9498ZM16.65 7.9498C16.65 10.5187 14.5689 12.5998 12 12.5998C9.43104 12.5998 7.34998 10.5187 7.34998 7.9498C7.34998 5.38087 9.43104 3.2998 12 3.2998C14.5689 3.2998 16.65 5.38087 16.65 7.9498ZM5.89998 18.4284C5.89998 19.1972 5.80921 19.0998 6.23527 19.0998H17.7647C18.1907 19.0998 18.1 19.1972 18.1 18.4284C18.1 16.5358 15.3218 15.3998 12 15.3998C8.67817 15.3998 5.89998 16.5358 5.89998 18.4284ZM4.09998 18.4284C4.09998 15.1016 7.77276 13.5998 12 13.5998C16.2272 13.5998 19.9 15.1016 19.9 18.4284C19.9 20.164 19.2144 20.8998 17.7647 20.8998H6.23527C4.78551 20.8998 4.09998 20.164 4.09998 18.4284Z" fill="#3F8CD6"/>
</svg>
